<svg width="24" height="24" viewBox="0 0 24 24" fill="none" xmlns="http://www.w3.org/2000/svg" class="fill-primary-400 w-5 h-5 md:w-6 md:h-6"><path fill-rule="evenodd" clip-rule="evenodd" d="M16 7a4 4 0 1 1-8 0 4 4 0 0 1 8 0m-2 0a2 2 0 1 1-4 0 2 2 0 0 1 4 0m6 10.167c0-.434-.136-.86-.419-1.188A9.98 9.98 0 0 0 12 12.5a9.98 9.98 0 0 0-7.582 3.479A1.8 1.8 0 0 0 4 17.167V19a2 2 0 0 0 2 2h12a2 2 0 0 0 2-2zm-2 .041a7.98 7.98 0 0 0-6-2.708 7.98 7.98 0 0 0-6 2.708V19h12z" fill="currentFillColor"></path></svg>