<?xml version="1.0" encoding="UTF-8"?><svg id="Layer_1" xmlns="http://www.w3.org/2000/svg" viewBox="0 0 200 182.56"><path d="m0,137.44v31.63c0,6.51,14.68,13.48,36.54,13.48,11.14,0,20.41-1.81,26.83-4.45,6.33-2.18,9.71-5.17,9.71-5.17v-35.49c-6.03,5.94-19.95,10.01-36.54,10.01s-30.51-4.07-36.54-10.01Zm61.98,8.65c.79.36,1.29,1.14,1.29,2.01v21.91s0,.04,0,.06c0,6.14-16.8,7.78-26.73,7.78s-26.72-1.64-26.73-7.78v-21.97c0-.86.51-1.65,1.29-2.01.78-.35,1.67-.23,2.32.33,2.34,2.03,11.03,4.09,23.12,4.09s20.78-2.06,23.12-4.09c.65-.56,1.54-.69,2.32-.33Z" fill="#fff"/><path d="m72.78,129.13c-2.17-6-16.18-11.87-36.24-11.87S2.47,123.13.3,129.13c-.19.54-.3,1.08-.3,1.61h0c0,.54.11,1.07.3,1.61,2.17,6,16.18,11.87,36.24,11.87s34.07-5.87,36.24-11.87c.19-.54.3-1.08.3-1.61h0c0-.54-.11-1.07-.3-1.61Zm-9.51,1.61c0,.56-.11,1.1-.31,1.61-2.08,5.26-14.31,8-26.41,8s-24.33-2.74-26.42-8c-.2-.51-.31-1.05-.31-1.61h0c0-.56.11-1.1.31-1.61,2.08-5.26,14.31-8,26.42-8s24.33,2.74,26.41,8c.2.51.31,1.05.31,1.61h0Z" fill="#fff"/><path d="m59.04,129.13c-2.74-2.32-10.93-4.78-22.5-4.78s-19.76,2.46-22.5,4.78c-.66.56-1.01,1.11-1.01,1.61,0,0,0,0,0,0,0,.5.35,1.05,1.01,1.61,2.74,2.32,10.93,4.78,22.5,4.78s19.76-2.46,22.5-4.78c.66-.56,1.01-1.11,1.01-1.61,0,0,0,0,0,0,0-.5-.35-1.05-1.01-1.61Z" fill="#fff"/><path d="m13.04,149.98v20.08c.29,1.54,8.84,4.56,23.51,4.56s23.19-3.01,23.51-4.56h0v-20.07c-4.41,2.29-13.36,3.75-23.51,3.75s-19.1-1.47-23.51-3.75Z" fill="#fff"/><polygon points="179.4 48.46 179.4 160.06 200 144.99 200 38.44 179.4 48.46" fill="#fff"/><rect x="92.55" width="36.27" height="16.22" fill="#fff"/><rect x="151.76" width="36.27" height="16.22" fill="#fff"/><polygon points="199.21 35.09 199.21 35.09 190.07 21.45 190.07 21.45 180.92 44 199.21 35.09" fill="#fff"/><polygon points="187.21 19.57 187.21 19.57 150.08 19.57 130.5 19.57 93.37 19.57 92.01 19.57 91.78 20.13 90.88 22.36 81.39 45.74 100.36 45.74 102.17 45.74 103.98 45.74 176.59 45.74 176.59 45.74 185.69 23.3 187.21 19.57" fill="#fff"/><rect x="132.17" width="16.23" height="16.22" fill="#fff"/><path d="m104.53,49.09h-23.96v112.59h95.47V49.09h-71.51Zm3.36,15.7c0-.65.37-1.24.96-1.51s1.28-.19,1.78.22l7.77,6.34c3.03-1.69,6.43-2.58,9.9-2.58s6.87.89,9.91,2.58l7.77-6.34c.5-.41,1.2-.49,1.78-.22.58.28.96.87.96,1.51v22.87c0,11.25-9.16,20.4-20.42,20.4s-20.41-9.15-20.41-20.4v-22.87Z" fill="#fff"/></svg>