<?xml version="1.0" encoding="UTF-8"?><svg id="Layer_1" xmlns="http://www.w3.org/2000/svg" viewBox="0 0 192.24 182.63"><path d="m141.56,116.03c-.59-2.21-2.6-3.76-4.89-3.76h-67.74l1.19,3.74h60.93c2.02,0,3.8,1.36,4.33,3.3l8.81,31.92c.38,1.36.1,2.79-.76,3.92-.86,1.13-2.16,1.77-3.58,1.77H11.28c-1.42,0-2.72-.65-3.57-1.77-.86-1.13-1.13-2.55-.76-3.92l8.81-31.92c.54-1.94,2.32-3.3,4.33-3.3h.25l-1.19-3.74h-3.2c-2.29,0-4.3,1.55-4.89,3.76L.17,156.82c-.41,1.53-.09,3.13.88,4.39.97,1.26,2.43,1.98,4.01,1.98h142.48c1.59,0,3.05-.72,4.01-1.98.97-1.26,1.28-2.86.88-4.39l-10.87-40.79Z" fill="#fff"/><path d="m20.08,118.94c-.7,0-1.31.47-1.5,1.14l-5.18,18.77c3.74-1,8.32-2.21,13.13-3.45l-5.26-16.46h-1.19Z" fill="#fff"/><path d="m131.04,118.94h-59.99l4.21,13.16c2.71.56,5.59.99,8.85,1.05,6.9.15,12.26-2.29,17.43-4.65,4.7-2.14,9.14-4.16,14.08-3.8,3.55.26,10.26,2.39,19.94,6.34l-3.03-10.96c-.19-.67-.8-1.14-1.5-1.14Z" fill="#fff"/><path d="m9.8,180.11c.16,1.44,1.38,2.53,2.83,2.53h127.33c1.45,0,2.67-1.09,2.83-2.53l1.59-13.99H8.21l1.59,13.99Z" fill="#fff"/><path d="m21.3,109.38l.45,1.42.47,1.47,1.19,3.74.47,1.47.47,1.47,5.03,15.73c6.58-1.69,13.3-3.37,18.57-4.58,9.66-2.22,15.96-.69,22.62.93.45.11.91.22,1.37.33l-3.97-12.41-.47-1.47-.47-1.47-1.19-3.74-.47-1.47-.47-1.47-4.02-12.59c-1.28-4.01-5.01-6.57-9.01-6.57-.95,0-1.92.14-2.87.45l-5.05,1.61-11.47,3.67-5.05,1.61c-2.4.77-4.36,2.43-5.52,4.67-1.15,2.23-1.37,4.77-.62,7.15,0,.02,0,.04.01.05Z" fill="#fff"/><path d="m32.99,92.65l4.33-1.38,4.33-1.38-9.33-29.2c-.39-1.21-1.52-1.99-2.73-1.99-.29,0-.58.04-.87.14l-3.22,1.03c-.73.23-1.32.73-1.67,1.41-.35.68-.41,1.45-.18,2.18l9.33,29.2Z" fill="#fff"/><path d="m136.56,134.63c-13.11-5.46-18.73-6.82-21.14-7-4.2-.31-8.12,1.48-12.65,3.55-5.22,2.38-11.12,5.04-18.71,4.92-2.85-.06-5.39-.37-7.77-.8-.56-.1-1.1-.21-1.64-.32-.56-.12-1.11-.24-1.66-.36-1.05-.24-2.08-.49-3.1-.74-6.32-1.54-12.28-2.99-21.27-.92-5.19,1.19-11.82,2.85-18.33,4.52-.48.12-.95.24-1.42.37-.48.12-.95.25-1.42.37-5.59,1.45-10.91,2.86-14.93,3.93l-2.72,9.86c-.13.47-.04.97.26,1.36.3.39.75.61,1.24.61h128.58c.49,0,.94-.22,1.24-.61s.39-.88.26-1.36l-4.8-17.37Z" fill="#fff"/><path d="m141.86,154.68c-.32.28-.69.5-1.11.63.42-.13.8-.35,1.11-.63Z" fill="#fff"/><path d="m178.92,1.09c0-.6-.49-1.09-1.09-1.09h-15.94c-.6,0-1.09.49-1.09,1.09v9.75h18.12V1.09Z" fill="#fff"/><path d="m185.87,12.82h-32c-3.51,0-6.37,2.86-6.37,6.37v72.89s0,.04,0,.04v10.82c0,3.51,2.86,6.37,6.37,6.37h32c3.51,0,6.37-2.86,6.37-6.37v-10.82s0-.04,0-.04V19.19c0-3.51-2.86-6.37-6.37-6.37Zm-26.71,30.08l4.96,4.05c1.66-1.06,3.63-1.68,5.75-1.68s4.09.62,5.75,1.68l4.96-4.05v13.08c0,5.92-4.8,10.71-10.71,10.71s-10.71-4.8-10.71-10.71v-13.08Z" fill="#fff"/></svg>