<?xml version="1.0" encoding="UTF-8"?><svg id="Layer_1" xmlns="http://www.w3.org/2000/svg" viewBox="0 0 188.81 159.73"><path d="m55.41,44.33v7.77c0,.56.06,1.1.17,1.63.57,2.67,2.5,4.83,5.03,5.77.75.28,1.56.45,2.4.49.13,0,.26.02.39.02h76.94c.54,0,1.06-.05,1.57-.16,3.35-.66,5.94-3.4,6.35-6.8.04-.31.06-.63.06-.95v-7.93c-13.05-3.38-28.97-5.38-46.14-5.38s-33.61,2.06-46.78,5.54Z" fill="#fff"/><polygon points="151.73 0 148.73 0 147.74 0 147.74 0 151.73 0 151.73 0" fill="#fff"/><polygon points="137.2 0 138 0 138 0 137.2 0 137.2 0" fill="#fff"/><path d="m188.81,69.78V16.34h-30.09c-4.4,0-7.99,3.55-7.99,7.9v27.6c0,.69-.07,1.37-.2,2.02-.77,3.91-3.75,7.04-7.61,8.13-.8.23-1.64.36-2.51.39-.15,0-.3.02-.45.02H63.03c-5.94,0-10.77-4.74-10.77-10.56v-27.6c0-3.72-2.61-6.83-6.11-7.67-.45-.11-.91-.18-1.38-.21,0,0,0-.02,0-.03H12.92v56.58c7.11-2.1,13.18-4.39,23.9-4.45,17.41-.1,29.01,7.91,32.85,13.97h119.14v-12.66Z" fill="#fff"/><path d="m36.83,103.94c16,0,29.01-6.96,29.01-15.51s-13.01-15.51-29.01-15.51-29.01,6.96-29.01,15.51,13.01,15.51,29.01,15.51Zm0-28.42c12.71,0,22.67,5.67,22.67,12.92s-9.96,12.91-22.67,12.91-22.66-5.67-22.66-12.91,9.96-12.92,22.66-12.92Z" fill="#fff"/><path d="m128.75,117.17c-1.09,9.82-15.61,17.63-33.31,17.63s-33.39-8.44-33.39-18.81c0-5.27,3.86-10.03,10.07-13.45l-4.38-12.85c-1.14,9.07-14.57,16.24-30.91,16.24s-29.82-7.21-30.92-16.3l-5.22,15.14h0c-.45,1.27-.7,2.58-.7,3.92,0,11.19,16.49,20.26,36.83,20.26,4.99,0,9.75-.55,14.1-1.54,3.62-.83,6.75,2.57,5.55,6.07l-.05.14h0c-.49,1.37-.75,2.79-.75,4.24,0,12.08,17.8,21.87,39.76,21.87s39.76-9.79,39.76-21.87c0-1.9-.44-3.74-1.27-5.5l-5.18-15.18Z" fill="#fff"/><path d="m64.04,115.99c0,9.28,14.08,16.82,31.4,16.82s31.4-7.55,31.4-16.82-14.08-16.82-31.4-16.82-31.4,7.55-31.4,16.82Zm8.44,3.09c3.06-5.76,12.29-9.63,22.95-9.63s19.89,3.87,22.95,9.63l.25.47-.25.47c-3.06,5.76-12.29,9.63-22.95,9.63s-19.89-3.87-22.95-9.63l-.25-.47.25-.47Z" fill="#fff"/></svg>