<?xml version="1.0" encoding="UTF-8"?><svg id="Layer_1" xmlns="http://www.w3.org/2000/svg" viewBox="0 0 199.93 200"><path d="m22.85,121.43c-12.6,0-22.85,10.25-22.85,22.85s10.25,22.85,22.85,22.85,22.85-10.25,22.85-22.85-10.25-22.85-22.85-22.85Z" fill="#fff"/><path d="m59.34,80.23c-17.58,0-31.88,14.3-31.88,31.88,0,2.21.23,4.36.65,6.44,11.33,2.31,20.02,11.94,20.92,23.72,3.24,1.11,6.7,1.72,10.31,1.72,17.58,0,31.88-14.3,31.88-31.88s-14.3-31.88-31.88-31.88Z" fill="#fff"/><path d="m111.05,81.89c.27.28.65.44,1.05.44s.77-.16,1.05-.44c4.88-5.02,7.68-12.63,7.68-20.88,0-6.25-1.61-12.14-4.52-16.81.34-.65.55-1.39.55-2.18,0-2.29-1.63-4.2-3.78-4.65V9.19c.49.21,1.02.36,1.58.4,22.48,1.56,40.09,20.46,40.09,43.02v61.39c3.3.49,6.51,1.28,9.6,2.33v-63.72C164.34,24.98,142.76,1.87,115.22.01c-1.32-.09-2.57.36-3.54,1.27-.9.84-1.42,2-1.5,3.23-.02.1-.03.2-.03.3h0v32.9c-1.65.75-2.8,2.4-2.8,4.32,0,.79.21,1.52.55,2.18-2.91,4.67-4.52,10.56-4.52,16.81,0,8.24,2.8,15.85,7.68,20.88Z" fill="#fff"/><path d="m124.2,133.05c-6.35,0-11.59,4.79-12.32,10.94h12.65c.81,0,1.46.65,1.46,1.46v12.27c6.06-.86,10.61-5.99,10.61-12.27,0-6.84-5.57-12.41-12.41-12.41Z" fill="#fff"/><path d="m199.91,166.94c.03-.38.03-.76-.02-1.15-3.23-26.6-25.89-47.22-53.36-47.22s-50.13,20.61-53.36,47.22c-.42,3.48,2.31,6.54,5.81,6.54h95.09c.58,0,1.13-.09,1.65-.24v2.29c0,11.84-9.59,21.43-21.43,21.43h-60.58c-1.16,0-2.1.94-2.1,2.1s.94,2.1,2.1,2.1h60.58c14.16,0,25.63-11.48,25.63-25.63v-7.2c0-.08-.01-.15-.02-.23Zm-90.18-4.81c-2.47,0-4.49-2.01-4.49-4.49s2.01-4.49,4.49-4.49,4.49,2.01,4.49,4.49-2.01,4.49-4.49,4.49Zm14.84-1.36h-.04c-.38,0-.75-.15-1.02-.42-.28-.27-.44-.65-.44-1.05v-12.39h-12.74c-.81,0-1.46-.65-1.46-1.46,0-8.45,6.88-15.33,15.33-15.33s15.33,6.88,15.33,15.33-6.57,15.11-14.96,15.31Z" fill="#fff"/></svg>