<svg id="Capa_1" enable-background="new 0 0 512.602 512.602" height="512" viewBox="0 0 512.602 512.602" width="512" xmlns="http://www.w3.org/2000/svg"><g id="XMLID_819_"><path id="XMLID_1062_" d="m436.301 448.874 10.694 63.233-379.651.495 10.694-63.728 178.263-23.846z" fill="#99503d"/><path id="XMLID_1076_" d="m78.038 63.728-10.694-63.233 379.651-.495-10.694 63.729-179.132 16.688z" fill="#99503d"/><path id="XMLID_813_" d="m256.301 512.356 190.694-.249-10.694-63.233-180-23.846z" fill="#923f02"/><path id="XMLID_818_" d="m256.301.249v80.087l.868.081 179.132-16.688 10.694-63.729z" fill="#923f02"/><path id="XMLID_1027_" d="m436.301 448.874h-358.263c-21.091-127.533-21.091-257.612 0-385.145h358.263l6.973 63.25c9.477 85.96 9.477 172.685 0 258.645z" fill="#ffb64c"/><path id="XMLID_823_" d="m443.274 126.979-6.974-63.25h-180v385.145h180l6.974-63.25c9.478-85.96 9.478-172.686 0-258.645z" fill="#e69f34"/><path id="XMLID_1172_" d="m313.217 206.823c.141-.122.285-.238.425-.363 13.801-12.414 14.985-33.719 2.643-47.586-12.342-13.866-33.535-15.043-47.337-2.629-13.801 12.414-14.985 33.719-2.643 47.586l4.469 5.021-63.078 56.739-4.469-5.021c-12.342-13.866-33.535-15.043-47.337-2.629-13.801 12.414-14.985 33.719-2.643 47.586 12.342 13.866 33.535 15.043 47.337 2.629-13.801 12.414-14.985 33.719-2.643 47.586 12.342 13.866 33.535 15.043 47.337 2.629 13.801-12.414 14.985-33.719 2.643-47.586l-3.724-4.185 63.078-56.739 3.724 4.184c12.342 13.866 33.535 15.043 47.337 2.629 13.801-12.414 14.985-33.719 2.643-47.586-12.342-13.866-33.535-15.043-47.337-2.629" fill="#f5f3f2"/><path id="XMLID_822_" d="m360.979 209.089c-12.342-13.866-33.535-15.043-47.337-2.629 13.802-12.415 14.985-33.719 2.643-47.586s-33.535-15.043-47.337-2.629c-13.801 12.414-14.985 33.719-2.643 47.586l4.469 5.021-14.473 13.019v73.841l50.974-45.851 3.724 4.184c12.342 13.866 33.535 15.043 47.337 2.629 13.801-12.414 14.985-33.719 2.643-47.585z" fill="#ede9e8"/><path id="XMLID_824_" d="m256.301 336.415c.199-2.119.2-4.255 0-6.379z" fill="#ffb64c"/></g></svg>