<svg width="24" height="24" viewBox="0 0 24 24" fill="none" xmlns="http://www.w3.org/2000/svg">
<path d="M10.2227 0.881592C11.3423 0.326408 12.6577 0.326408 13.7773 0.881592L20.7773 4.35229C22.1388 5.02755 23 6.41654 23 7.93628L23 16.0642C23 17.584 22.1389 18.973 20.7773 19.6482L13.7773 23.1189C12.6577 23.6741 11.3423 23.6741 10.2227 23.1189L3.22266 19.6482C1.86109 18.973 1.00003 17.584 1 16.0642L1 7.93628C1 6.41654 1.86119 5.02755 3.22266 4.35229L10.2227 0.881592ZM16.707 7.29272C16.3165 6.90234 15.6835 6.90234 15.293 7.29272L7.29297 15.2927C6.90248 15.6832 6.90255 16.3163 7.29297 16.7068C7.68349 17.0973 8.31651 17.0973 8.70703 16.7068L16.707 8.70679C17.0974 8.31625 17.0975 7.68321 16.707 7.29272ZM15 12.9998C13.8955 12.9998 13.0001 13.8953 13 14.9998C13 16.1043 13.8954 16.9998 15 16.9998C16.1046 16.9998 17 16.1043 17 14.9998C16.9999 13.8953 16.1045 12.9998 15 12.9998ZM9 6.99976C7.8955 6.99976 7.00012 7.89529 7 8.99976C7 10.1043 7.89543 10.9998 9 10.9998C10.1046 10.9998 11 10.1043 11 8.99976C10.9999 7.89529 10.1045 6.99976 9 6.99976Z" fill="#282828"/>
</svg>
