<svg width="20" height="20" viewBox="0 0 20 20" fill="none" xmlns="http://www.w3.org/2000/svg" class="fill-primary-400 ml-4"><path fill-rule="evenodd" clip-rule="evenodd" d="M9.167 14.167a5.001 5.001 0 0 0 1.913-9.62 5 5 0 1 0-1.913 9.62m0 1.666a6.666 6.666 0 1 0 0-13.332 6.666 6.666 0 0 0 0 13.332" fill="currentFillColor"></path><path fill-rule="evenodd" clip-rule="evenodd" d="M12.767 12.742a.833.833 0 0 1 1.178.004l3.313 3.333a.833.833 0 0 1-1.182 1.175l-3.313-3.333a.833.833 0 0 1 .004-1.178z" fill="currentFillColor"></path></svg>