<svg width="24" height="24" viewBox="0 0 24 24" fill="none" xmlns="http://www.w3.org/2000/svg" class="fill-primary-400 md:w-6 md:h-6 w-5 h-5"><path fill-rule="evenodd" clip-rule="evenodd" d="M0 3a1 1 0 0 1 1-1h2.677a1 1 0 0 1 .929.629L5.154 4h16.369a1 1 0 0 1 .928 1.371l-2.948 7.372A2 2 0 0 1 17.646 14H8.21l-1.338 2H19a1 1 0 1 1 0 2H5a1 1 0 0 1-.831-1.556l2.384-3.562L3 4H1a1 1 0 0 1-1-1m8.354 9h9.292l2.4-6H5.954z" fill="currentFillColor"></path><path d="M7.5 21.25a1.75 1.75 0 1 1-3.5 0 1.75 1.75 0 0 1 3.5 0M18.25 23a1.75 1.75 0 1 0 0-3.5 1.75 1.75 0 0 0 0 3.5" fill="currentFillColor"></path></svg>