<svg width="24" height="24" viewBox="0 0 24 24" fill="none" xmlns="http://www.w3.org/2000/svg">
<path d="M12 0C14.6079 0 16.8916 0.904931 18.5205 2.68359C19.991 4.28931 20.8272 6.50068 20.9736 9.11914C22.7122 9.55393 24 11.1267 24 13V16C24 18.14 22.3194 19.8879 20.2061 19.9951L20 20C20 21.6569 18.6569 23 17 23H15.7305C15.3845 23.5973 14.7399 24 14 24H13C11.8954 24 11 23.1046 11 22C11 20.8954 11.8954 20 13 20H14C14.7399 20 15.3845 20.4027 15.7305 21H17C17.5523 21 18 20.5523 18 20L17.8975 19.9951C17.3933 19.9438 17 19.5177 17 19V10C17 9.44772 17.4477 9 18 9H18.5293C18.3716 7.00427 17.7191 5.49327 16.7666 4.45312C15.6711 3.25695 14.0624 2.55273 12 2.55273C9.93765 2.55273 8.32886 3.25695 7.2334 4.45312C6.28086 5.49327 5.62842 7.00427 5.4707 9H6C6.55228 9 7 9.44772 7 10V19C7 19.5523 6.55228 20 6 20H4C1.79086 20 6.44266e-08 18.2091 0 16V13C5.46238e-08 11.127 1.28724 9.55425 3.02539 9.11914C3.17179 6.50066 4.00901 4.28932 5.47949 2.68359C7.10836 0.904931 9.39212 3.44873e-08 12 0Z" fill="#282828"/>
</svg>
