<?xml version="1.0" encoding="UTF-8"?><svg id="Layer_1" xmlns="http://www.w3.org/2000/svg" viewBox="0 0 196 200"><path d="m76.93,73.86H7.22c-3.98,0-7.22,3.24-7.22,7.22v111.69c0,3.98,3.24,7.22,7.22,7.22h69.71c3.98,0,7.22-3.24,7.22-7.22v-111.69c0-3.98-3.24-7.22-7.22-7.22Zm-59.8,104.54v-82.96c0-1.43,1.16-2.59,2.59-2.59h44.22c1.43,0,2.59,1.16,2.59,2.59v82.96c0,1.43-1.16,2.59-2.59,2.59H19.73c-1.43,0-2.59-1.16-2.59-2.59Z" fill="#fff"/><path d="m21.3,69.26h41.07c1.19,0,2.15-.97,2.15-2.15v-14.7c0-1.19-.97-2.15-2.15-2.15-2.45,0-4.44-1.99-4.44-4.44V3.15c0-1.19-.97-2.15-2.15-2.15h-27.41c-1.19,0-2.15.97-2.15,2.15v42.66c0,2.45-1.99,4.44-4.44,4.44h-.48c-1.19,0-2.15.97-2.15,2.15v14.7c0,1.19.97,2.15,2.15,2.15Z" fill="#fff"/><path d="m137.39,29.04c-1.07,0-1.94-.87-1.94-1.94V6.82c0-3.76-3.06-6.82-6.82-6.82h-2.78c-3.67,0-6.66,2.99-6.66,6.66v20.44c0,1.07-.87,1.94-1.94,1.94-2.63,0-4.78,2.14-4.78,4.78v75.41c0,2.63,2.14,4.78,4.78,4.78,1.07,0,1.94.87,1.94,1.94v19.9c0,3.97,3.23,7.21,7.21,7.21h1.97c3.91,0,7.09-3.18,7.09-7.09v-20.01c0-1.07.87-1.94,1.94-1.94,2.63,0,4.78-2.14,4.78-4.78V33.82c0-2.63-2.14-4.78-4.78-4.78Z" fill="#fff"/><path d="m191.49,92.34c-1.01,0-1.83-.82-1.83-1.83v-19.15c0-3.55-2.89-6.44-6.44-6.44h-2.63c-3.47,0-6.29,2.82-6.29,6.29v19.3c0,1.01-.82,1.83-1.83,1.83-2.49,0-4.51,2.02-4.51,4.51v71.22c0,2.49,2.02,4.51,4.51,4.51,1.01,0,1.83.82,1.83,1.83v18.79c0,3.75,3.05,6.81,6.81,6.81h1.86c3.69,0,6.7-3,6.7-6.7v-18.9c0-1.01.82-1.83,1.83-1.83,2.49,0,4.51-2.02,4.51-4.51v-71.22c0-2.49-2.02-4.51-4.51-4.51Z" fill="#fff"/></svg>