<?xml version="1.0" encoding="UTF-8"?><svg id="Layer_1" xmlns="http://www.w3.org/2000/svg" viewBox="0 0 197.28 197.28"><path d="m188.34,0h-8.19c-4.93,0-8.94,4.01-8.94,8.94v50.12c0,1.47-1.2,2.67-2.67,2.67s-2.67-1.2-2.67-2.67V8.94c0-4.93-4.01-8.94-8.94-8.94h-8.19c-4.93,0-8.94,4.01-8.94,8.94v50.12c0,1.47-1.2,2.67-2.67,2.67s-2.67-1.2-2.67-2.67V8.94c0-4.93-4.01-8.94-8.94-8.94h-8.19c-4.93,0-8.94,4.01-8.94,8.94v50.12c0,1.47-1.2,2.67-2.67,2.67s-2.67-1.2-2.67-2.67V4.64c0-2.56-2.08-4.64-4.64-4.64h-1.08c-2.56,0-4.64,2.08-4.64,4.64v58.52c0,4.93,4.01,8.94,8.94,8.94h8.19c4.93,0,8.94-4.01,8.94-8.94V13.03c0-1.47,1.2-2.67,2.67-2.67s2.67,1.2,2.67,2.67v50.12c0,4.93,4.01,8.94,8.94,8.94h8.19c4.93,0,8.94-4.01,8.94-8.94V13.03c0-1.47,1.2-2.67,2.67-2.67s2.67,1.2,2.67,2.67v50.12c0,4.93,4.01,8.94,8.94,8.94h8.19c4.93,0,8.94-4.01,8.94-8.94V13.03c0-1.47,1.2-2.67,2.67-2.67s2.67,1.2,2.67,2.67v54.42c0,2.56,2.08,4.64,4.64,4.64h1.08c2.56,0,4.64-2.08,4.64-4.64V8.94c0-4.93-4.01-8.94-8.94-8.94Z" fill="#fff"/><rect y="1.97" width="35.97" height="42.58" fill="#fff"/><polygon points="0 51.56 11.79 51.56 23.51 51.56 35.97 51.56 35.97 46.53 0 46.53 0 51.56" fill="#fff"/><rect x="13.77" y="53.54" width="7.76" height="143.74" fill="#fff"/><polygon points="55.52 151.63 49.85 197.28 85.44 197.28 79.76 151.63 55.52 151.63" fill="#fff"/><polygon points="79.65 141.55 73.54 141.55 61.83 141.55 55.7 141.55 55.7 150.15 79.65 150.15 79.65 141.55" fill="#fff"/><polygon points="72.55 140.07 73.54 140.07 73.54 139.08 73.54 0 61.83 0 61.83 139.08 61.83 140.07 62.82 140.07 72.55 140.07" fill="#fff"/><path d="m163.08,118.63h-39.85c-3.43,0-6.22,2.79-6.22,6.22v66.2c0,3.43,2.79,6.22,6.22,6.22h39.85c3.43,0,6.22-2.79,6.22-6.22v-66.2c0-3.43-2.79-6.22-6.22-6.22Zm-4.83,14.16v50.34c0,1.23-1,2.23-2.23,2.23h-26.01c-1.23,0-2.23-1-2.23-2.23v-50.34c0-1.23,1-2.23,2.23-2.23h26.01c1.23,0,2.23,1,2.23,2.23Z" fill="#fff"/><rect x="127.76" y="91.69" width="30.48" height="24.96" rx="3.14" ry="3.14" fill="#fff"/></svg>