<svg width="15" height="14" viewBox="0 0 15 14" fill="none" xmlns="http://www.w3.org/2000/svg">
<path fill-rule="evenodd" clip-rule="evenodd" d="M5.5351 6.08402C5.5351 7.13666 6.41672 8.00623 7.48396 8.00623C8.55119 8.00623 9.43282 7.13666 9.43282 6.08402C9.43282 5.03138 8.55119 4.1618 7.48396 4.1618C6.41672 4.1618 5.5351 5.03138 5.5351 6.08402ZM8.48688 5.65693L7.88366 5.5654L7.60525 5.03145C7.55885 4.92466 7.37324 4.92466 7.32684 5.03145L7.04843 5.5654L6.44521 5.65693C6.38334 5.67219 6.33694 5.7027 6.32147 5.76372C6.30601 5.82474 6.32147 5.88577 6.36788 5.91628L6.80096 6.34343L6.69269 6.93841C6.67722 6.99943 6.70815 7.06045 6.75456 7.09096C6.78549 7.10622 6.81642 7.12147 6.84736 7.12147C6.87829 7.12147 6.89376 7.12147 6.92469 7.10622L7.46604 6.83162L8.0074 7.10622C8.0538 7.13673 8.11567 7.13673 8.16207 7.09096C8.20847 7.06045 8.2394 6.99943 8.22394 6.93841L8.11567 6.34343L8.54875 5.91628C8.59515 5.87051 8.61062 5.80949 8.59515 5.76372C8.59515 5.7027 8.54875 5.65693 8.48688 5.65693Z" fill="white"/>
<path fill-rule="evenodd" clip-rule="evenodd" d="M13.0773 7.78499H13.0755C13.2488 8.11244 13.2958 8.51019 13.1746 8.89316C13.0534 9.27521 12.788 9.56905 12.46 9.72907L12.4622 9.73058C12.1414 9.91971 11.8459 10.2502 11.6737 10.651C11.6223 10.7699 11.5855 10.8872 11.5626 11.0009L11.5611 10.9994C11.5502 11.0831 11.5327 11.1654 11.5072 11.2461C11.4217 11.522 11.2524 11.7725 11.0071 11.9557C10.7293 12.1627 10.4009 12.2472 10.0838 12.2196C10.0387 12.2158 9.99468 12.2091 9.95027 12.2009L9.95099 12.2031C9.58302 12.1627 9.15489 12.2517 8.78647 12.4723C8.67689 12.5373 8.58001 12.6099 8.49592 12.6876L8.49555 12.6861C8.24545 12.9568 7.89197 13.125 7.49993 13.125C7.10787 13.125 6.75471 12.9568 6.50462 12.6861L6.50352 12.6891C6.22868 12.4342 5.83114 12.248 5.40704 12.2039C5.28143 12.1904 5.16132 12.1912 5.04918 12.2031L5.0499 12.2009C4.91378 12.227 4.77433 12.2316 4.63563 12.2143C4.41065 12.1874 4.1893 12.1015 3.9931 11.9557C3.7292 11.759 3.55373 11.4831 3.4751 11.1833C3.45907 11.1227 3.44704 11.0614 3.43868 10.9994L3.43649 11.0016C3.36004 10.63 3.14562 10.239 2.82709 9.94737C2.73319 9.86064 2.63596 9.78805 2.53805 9.73053L2.53985 9.72902C2.21223 9.56898 1.9465 9.2759 1.82562 8.89311C1.70402 8.51029 1.75134 8.11328 1.92464 7.78503H1.9221C2.07278 7.43882 2.12306 6.99283 2.0324 6.56479C2.00547 6.43806 1.96833 6.32106 1.9221 6.21487H1.92464C1.75134 5.88739 1.70402 5.49038 1.82562 5.10756C1.94647 4.72474 2.21221 4.43167 2.53985 4.27129L2.53766 4.26942C2.85838 4.08026 3.15398 3.74982 3.32582 3.34905C3.3768 3.23016 3.41394 3.11278 3.43684 2.99951L3.43866 3.00102C3.45322 2.88813 3.4809 2.77709 3.52167 2.67093C3.61375 2.42832 3.77282 2.20887 3.99307 2.04514C4.30978 1.80813 4.69276 1.73185 5.04988 1.79989L5.04878 1.7969C5.41685 1.83727 5.84528 1.74793 6.21372 1.52773C6.32292 1.4627 6.41978 1.38942 6.50387 1.31165L6.50457 1.31426C6.75471 1.04399 7.10782 0.875 7.49989 0.875C7.89193 0.875 8.24543 1.04397 8.49548 1.31426L8.49616 1.31201C8.7707 1.56659 9.16821 1.75314 9.59269 1.79726C9.71864 1.81035 9.83841 1.80997 9.95055 1.798L9.95013 1.79987C10.3072 1.73185 10.6898 1.8081 11.0069 2.04512C11.0302 2.06229 11.0524 2.08024 11.0743 2.09857C11.351 2.33254 11.5169 2.65818 11.561 3.00099L11.5628 2.99987C11.6393 3.37073 11.8538 3.76209 12.1719 4.0537C12.2666 4.14005 12.3634 4.2126 12.4613 4.27017L12.4599 4.27129C12.7879 4.43167 13.0533 4.72474 13.1745 5.10756C13.2957 5.49038 13.2488 5.88739 13.0755 6.21487H13.0777C12.9266 6.56178 12.8763 7.00738 12.967 7.43506C12.9935 7.56216 13.0311 7.67961 13.0773 7.78499ZM10.2826 6.60078L10.2532 6.63282C10.1604 6.72435 10.0675 6.81589 10.0521 6.90742C10.0211 6.99895 10.0366 7.13625 10.0521 7.2583C10.083 7.47188 10.0985 7.70071 9.97475 7.86852C9.85665 8.02869 9.63991 8.07768 9.44558 8.12161L9.41793 8.12787C9.39289 8.13336 9.36835 8.13835 9.34449 8.14321C9.23572 8.16535 9.14108 8.18462 9.07765 8.23466C9.01025 8.27455 8.9546 8.37238 8.90045 8.46755C8.89254 8.48146 8.88446 8.49566 8.87658 8.50926C8.86334 8.52979 8.85009 8.551 8.83665 8.57253C8.74027 8.72693 8.63338 8.89817 8.4435 8.95168C8.3971 8.98219 8.35069 8.98219 8.30429 8.98219C8.14975 8.98219 8.00797 8.91925 7.87895 8.86198L7.84028 8.84489C7.81077 8.83397 7.78126 8.82219 7.75217 8.81058C7.65931 8.77349 7.57066 8.7381 7.5 8.7381C7.42934 8.7381 7.34076 8.77347 7.24789 8.81055C7.21882 8.82216 7.18921 8.83398 7.15972 8.84489L7.1502 8.8488C6.96674 8.92424 6.75415 9.01166 6.5565 8.95168C6.34978 8.89342 6.24174 8.71004 6.13817 8.53426L6.12342 8.50926C6.11547 8.49554 6.10752 8.48156 6.09954 8.46753C6.0454 8.37237 5.98975 8.27455 5.92235 8.23466C5.86353 8.18825 5.76894 8.16832 5.67257 8.14801C5.64231 8.14163 5.61162 8.13516 5.58207 8.12787C5.381 8.09736 5.14899 8.03634 5.02525 7.86852C4.90152 7.68546 4.91698 7.45662 4.94792 7.2583C4.96338 7.13625 4.97885 6.99895 4.94792 6.90742C4.91698 6.81588 4.83965 6.72435 4.74684 6.63282C4.59217 6.48026 4.4375 6.31245 4.4375 6.08361C4.4375 5.87068 4.58482 5.71058 4.71745 5.56644L4.74684 5.53441L4.76236 5.51607C4.83617 5.42889 4.91903 5.33104 4.94792 5.25981C4.97885 5.16827 4.96338 5.03097 4.94792 4.90893C4.91698 4.69535 4.90152 4.46651 5.02525 4.2987C5.14335 4.13853 5.36009 4.08954 5.55442 4.04562L5.58207 4.03935C5.72128 4.00884 5.84501 3.97833 5.92235 3.93256C5.98975 3.89268 6.0454 3.79485 6.09954 3.69968C6.10752 3.68566 6.11548 3.67167 6.12342 3.65796L6.15037 3.61198C6.25035 3.44058 6.35788 3.25626 6.5565 3.20029C6.75758 3.12401 6.97412 3.21555 7.15972 3.30708L7.17598 3.31396C7.28163 3.35873 7.41178 3.41387 7.5 3.41387C7.57066 3.41387 7.65924 3.3785 7.75211 3.34142C7.78122 3.32979 7.81075 3.318 7.84028 3.30708L7.8498 3.30317C8.03326 3.22773 8.24585 3.14031 8.4435 3.20029C8.64975 3.27294 8.75778 3.45632 8.86114 3.63178L8.87658 3.65796C8.88453 3.67168 8.89248 3.68566 8.90046 3.69969C8.9546 3.79486 9.01025 3.89268 9.07765 3.93256C9.14645 3.97328 9.2642 4.00192 9.37647 4.02922L9.41793 4.03935C9.619 4.06986 9.85101 4.11563 9.97475 4.2987C10.0985 4.48177 10.083 4.7106 10.0521 4.90893C10.0366 5.03097 10.0211 5.16827 10.0521 5.25981C10.083 5.35134 10.1604 5.44287 10.2532 5.53441C10.4078 5.68696 10.5625 5.85478 10.5625 6.08361C10.5625 6.29655 10.4152 6.45665 10.2826 6.60078ZM8.53304 9.25692C8.85785 9.15013 9.02799 8.86027 9.13626 8.66195C9.13626 8.65549 9.13626 8.65176 9.13743 8.64846C9.13903 8.64396 9.14281 8.64024 9.15171 8.63145L9.80135 10.1418C9.81681 10.2028 9.81681 10.2638 9.77041 10.3096C9.73948 10.3553 9.67761 10.3706 9.61574 10.3553L9.01252 10.1875L8.71864 10.7367C8.68771 10.7825 8.64131 10.813 8.57944 10.813C8.51757 10.813 8.47117 10.7825 8.44023 10.7215L7.77515 9.15013L7.81862 9.16744C7.96167 9.22466 8.11862 9.28743 8.30103 9.28743C8.37837 9.28743 8.4557 9.28743 8.53304 9.25692ZM5.86958 8.69574C5.99006 8.89028 6.14507 9.14057 6.45164 9.24136C6.52897 9.27188 6.60631 9.28713 6.68365 9.30239C6.88472 9.30239 7.07032 9.22611 7.20953 9.16509L6.54444 10.7364C6.51351 10.7822 6.46711 10.828 6.40524 10.828C6.34337 10.828 6.29697 10.7974 6.26603 10.7517L5.97216 10.2025L5.36894 10.3703C5.32253 10.3855 5.26067 10.3703 5.21426 10.3245C5.16786 10.2787 5.1524 10.2177 5.18333 10.1567L5.83295 8.64639L5.84842 8.66165L5.86958 8.69574Z" fill="white"/>
</svg>
