<svg width="24" height="24" viewBox="0 0 24 24" fill="none" xmlns="http://www.w3.org/2000/svg" class="fill-primary-400 w-6 h-6"><g clip-path="url(#a)"><path fill-rule="evenodd" clip-rule="evenodd" d="M3.6 4.2c0 .644.145 1.254.404 1.8H2.4A2.4 2.4 0 0 0 0 8.4V12a2.4 2.4 0 0 0 2.4 2.4v7.2A2.4 2.4 0 0 0 4.8 24h14.4a2.4 2.4 0 0 0 2.4-2.4v-7.2A2.4 2.4 0 0 0 24 12V8.4A2.4 2.4 0 0 0 21.6 6h-1.604A4.2 4.2 0 0 0 16.2 0c-2.023 0-3.362 1.158-4.2 2.478C11.162 1.158 9.823 0 7.8 0a4.2 4.2 0 0 0-4.2 4.2m2.4 0A1.8 1.8 0 0 0 7.8 6h3v-.006c-.006-.046-.034-.316-.164-.752a6 6 0 0 0-.632-1.43C9.437 2.896 8.75 2.4 7.8 2.4A1.8 1.8 0 0 0 6 4.2m4.8 4.2H2.4V12h8.4zm2.4 0V12h8.4V8.4zM18 4.2A1.8 1.8 0 0 1 16.2 6h-3v-.006c.006-.046.034-.316.165-.752.135-.456.345-.967.631-1.43C14.564 2.896 15.25 2.4 16.2 2.4A1.8 1.8 0 0 1 18 4.2M4.8 14.4v7.2h6v-7.2zm14.4 7.2v-7.2h-6v7.2z" fill="currentFillColor"></path></g><defs><clipPath id="a"><path fill="#fff" d="M0 0h24v24H0z"></path></clipPath></defs></svg>