<?xml version="1.0" encoding="UTF-8"?><svg id="Layer_1" xmlns="http://www.w3.org/2000/svg" viewBox="0 0 193.02 193.98"><path d="m82.59,39.25c-.05.34-.11.68-.19,1.01-.08.33-.17.66-.27.98-3.09,9.44-18.56,16.64-37.13,16.64S10.96,50.68,7.87,41.24c-.11-.32-.2-.65-.27-.98-.08-.33-.14-.67-.19-1.01-4.68,3.77-7.41,8.28-7.41,13.12v81.21c0,13.18,20.19,23.91,45,23.91,23.36,0,42.32-9.11,44.73-21.32h.27s0-83.8,0-83.8c0-4.84-2.73-9.35-7.41-13.12ZM8.83,63.78c8.2,6.17,21.72,9.85,36.17,9.85s27.97-3.68,36.17-9.85l1.54-1.16v60.34c0,11.09-16.91,20.11-37.71,20.11s-37.71-9.02-37.71-20.11v-60.34l1.54,1.16Z" fill="#fff"/><path d="m9.3,37.02c.04.34.1.67.18,1.01,2.12,9.01,17.24,16.01,35.52,16.01s33.4-7.01,35.52-16.01c.08-.33.14-.67.18-1.01.04-.35.07-.7.08-1.05,0-.04,0-.08,0-.12v-10.38c-1.53,2.45-3.91,4.7-6.97,6.63-.31.2-.62.39-.95.58-.34.2-.69.39-1.04.58-6.84,3.7-16.34,5.99-26.82,5.99s-19.98-2.3-26.82-5.99c-.35-.19-.7-.38-1.04-.58-.32-.19-.64-.38-.95-.58-3.06-1.93-5.45-4.18-6.97-6.63v10.38s0,.08,0,.12c0,.35.03.7.08,1.05Z" fill="#fff"/><path d="m18.28,30.26c.34.2.7.39,1.06.58.38.2.76.39,1.15.58,6.41,3.07,15.03,4.95,24.51,4.95s18.1-1.89,24.51-4.95c.39-.19.78-.38,1.15-.58.36-.19.72-.38,1.06-.58,5.24-2.99,8.57-6.86,9.01-11.12.03-.32.05-.64.05-.96h0c0-.32-.02-.64-.05-.96C79.75,7.64,64.1,0,45,0S10.25,7.64,9.27,17.23c-.03.32-.05.64-.05.96h0c0,.32.02.64.05.96.44,4.26,3.77,8.13,9.01,11.12Z" fill="#fff"/><path d="m45,141.14c19.73,0,35.79-8.16,35.79-18.19v-56.56c-8.61,5.75-21.8,9.14-35.79,9.14s-27.18-3.39-35.79-9.14v56.56c0,10.03,16.05,18.19,35.79,18.19Zm-21.61-43.55c0-1.12.58-2.12,1.55-2.68.97-.56,2.12-.56,3.09,0l7.38,4.26c2.42-4.23,8.29-7.01,15.02-7.01,8.62,0,16.18,6.95,16.18,11.15s-7.56,11.15-16.18,11.15c-6.74,0-12.6-2.78-15.02-7.01l-7.38,4.26c-.97.56-2.13.56-3.09,0-.97-.56-1.55-1.56-1.55-2.68v-11.46Z" fill="#fff"/><path d="m192,184.35h.96l-4.7-86.02h-80.8l-5.64,86.02h90.17Zm-81.61-52.63l.2-.24c.65-.8,16.07-19.5,26.45-13.97,3.29,1.76,6.44,3.47,9.4,5.11.48.26.96.53,1.43.79.17.1.33.19.49.28,1.66.93,2.85,1.61,3.51,1.99,2.09-1.87,9.8-8.44,14.79-8.44,5.68,0,16.34,12.79,17.54,14.24l.2.24,2.96,48.24h-79.93l2.96-48.24Z" fill="#fff"/><polygon points="187.26 96.42 188.22 96.42 188.22 88.71 107.52 88.71 107.52 96.42 108.48 96.42 187.26 96.42" fill="#fff"/><polygon points="102.73 186.28 101.77 186.28 101.77 193.98 193.02 193.98 193.02 186.28 192.06 186.28 102.73 186.28" fill="#fff"/><path d="m126.54,44.25c5.2,0,9.44-4.23,9.44-9.44s-4.23-9.43-9.44-9.43-9.43,4.23-9.43,9.43,4.23,9.44,9.43,9.44Z" fill="#fff"/><circle cx="135.02" cy="54.18" r="9.44" fill="#fff"/><circle cx="186.16" cy="29.55" r="6.86" fill="#fff"/><path d="m165.09,20.79c5.2,0,9.44-4.23,9.44-9.44s-4.23-9.44-9.44-9.44-9.43,4.23-9.43,9.44,4.23,9.44,9.43,9.44Z" fill="#fff"/><path d="m148.22,31.28c-3.32,0-6.02,2.7-6.02,6.02s2.7,6.02,6.02,6.02,6.02-2.7,6.02-6.02-2.7-6.02-6.02-6.02Z" fill="#fff"/><path d="m164.34,55.85c0-4.28-3.48-7.75-7.75-7.75s-7.75,3.48-7.75,7.75,3.48,7.75,7.75,7.75,7.75-3.48,7.75-7.75Z" fill="#fff"/><circle cx="176.07" cy="50.41" r="7.75" fill="#fff"/><circle cx="144.19" cy="18.75" r="7.75" fill="#fff"/><path d="m175.46,33.78c0-4.28-3.48-7.75-7.75-7.75s-7.75,3.48-7.75,7.75,3.48,7.75,7.75,7.75,7.75-3.48,7.75-7.75Z" fill="#fff"/><path d="m124.84,19.43c2.76,0,5-2.24,5-5s-2.24-5-5-5-5,2.24-5,5,2.24,5,5,5Z" fill="#fff"/><path d="m184.54,14.99c2.75,0,5-2.24,5-5s-2.24-5-5-5-5,2.24-5,5,2.24,5,5,5Z" fill="#fff"/><path d="m118.07,59.18c2.75,0,5-2.24,5-5s-2.24-5-5-5-5,2.24-5,5,2.24,5,5,5Z" fill="#fff"/><path d="m148.22,74.04c2.75,0,5-2.24,5-5s-2.24-5-5-5-5,2.24-5,5,2.24,5,5,5Z" fill="#fff"/><path d="m169.28,72.59c2.76,0,5-2.24,5-5s-2.24-5-5-5-5,2.24-5,5,2.24,5,5,5Z" fill="#fff"/></svg>