<?xml version="1.0" encoding="UTF-8"?><svg id="Layer_1" xmlns="http://www.w3.org/2000/svg" viewBox="0 0 188.01 196.47"><path d="m9.86,93.59c0,21.44,8.03,41.03,21.21,55.97h20.66c-16.98-12.89-27.98-33.28-27.98-56.2,0-6.68.95-13.33,2.83-19.77l.36-1.22h130.91c-2.94-8.62-7.57-16.46-13.52-23.11H22.42c-8.21,13.33-12.55,28.64-12.55,44.34Z" fill="#fff"/><path d="m137.57,149.56h20.71c13.01-14.89,20.91-34.35,20.91-55.62,0-.06,0-.11,0-.17-.03-16.33-4.73-31.57-12.8-44.51-.35-.57-.7-1.13-1.07-1.69-.38-.57-.77-1.13-1.16-1.69-10.72-15.48-26.46-27.23-44.85-32.87v15.02c10.16,3.88,19.2,10.04,26.49,17.85.52.56,1.04,1.12,1.54,1.69.49.56.96,1.12,1.43,1.69,5.57,6.77,9.89,14.59,12.64,23.11,1.8,5.59,2.93,11.48,3.28,17.57.04.68.05,1.37.07,2.06.01.55.04,1.09.04,1.64,0,.1,0,.19,0,.29,0,22.56-10.69,42.7-27.26,55.62Z" fill="#fff"/><path d="m183.04,173.93c-4.61,0-8.35-3.75-8.35-8.35v-7.67c0-2.74-2.23-4.97-4.97-4.97H18.29c-2.74,0-4.97,2.23-4.97,4.97v7.67c0,4.61-3.75,8.35-8.35,8.35-2.74,0-4.97,2.23-4.97,4.97v12.6c0,2.74,2.23,4.97,4.97,4.97h178.07c2.74,0,4.97-2.23,4.97-4.97v-12.6c0-2.74-2.23-4.97-4.97-4.97Z" fill="#fff"/><path d="m74.85,36.65h35.43c3.12,0,5.65-2.54,5.65-5.65V5.65c0-3.12-2.54-5.65-5.65-5.65h-35.43c-3.12,0-5.65,2.54-5.65,5.65v25.35c0,3.12,2.54,5.65,5.65,5.65Z" fill="#fff"/><path d="m89.9,99.4c0-4.72-8.49-12.52-18.16-12.52-7.57,0-14.16,3.12-16.87,7.87l-8.3-4.79c-1.09-.63-2.38-.63-3.46,0-1.09.63-1.73,1.75-1.73,3v12.87c0,1.25.65,2.37,1.73,3,1.08.63,2.38.63,3.46,0l8.3-4.79c2.71,4.75,9.3,7.87,16.87,7.87,9.67,0,18.16-7.8,18.16-12.52Z" fill="#fff"/><path d="m141.18,103.74c-1.18-.14-2.3.35-3,1.3l-5.9,7.96c-4.34-3.4-11.71-3.68-18.75-.63-9.44,4.09-13.33,14.8-11.68,18.6,1.86,4.29,12.71,8.02,21.56,4.19,7.04-3.05,11.87-8.63,12.36-14.12l9.84,1.13c1.17.14,2.3-.35,3-1.3.71-.95.85-2.17.37-3.25l-5.17-11.92c-.47-1.09-1.45-1.81-2.63-1.95Z" fill="#fff"/></svg>