<svg width="62" height="62" viewBox="0 0 62 62" fill="none" xmlns="http://www.w3.org/2000/svg">
<rect x="0.287037" y="0.287037" width="61.4259" height="61.4259" rx="30.713" fill="#00584B"/>
<rect x="0.287037" y="0.287037" width="61.4259" height="61.4259" rx="30.713" stroke="#5CE08A" stroke-width="0.574074"/>
<circle cx="31.0001" cy="31.0001" r="22.963" fill="#028255"/>
<circle cx="31.0004" cy="30.9999" r="13.7778" fill="#33C173"/>
<mask id="path-4-outside-1_49476_27728" maskUnits="userSpaceOnUse" x="22.1855" y="13.1482" width="19" height="15" fill="black">
<rect fill="white" x="22.1855" y="13.1482" width="19" height="15"/>
<path d="M25.9987 15.5335C25.9987 16.3051 25.3787 16.87 24.4832 16.87C23.5876 16.87 22.9676 16.3051 22.9676 15.5335C22.9676 14.7482 23.5876 14.1833 24.4832 14.1833C25.3787 14.1833 25.9987 14.7482 25.9987 15.5335ZM25.7783 27.1482H23.1743V17.2557H25.7783V27.1482ZM32.8615 23.4282V27.1482H30.2575V23.4282L26.7993 17.2557H29.6099L31.649 21.0446L33.7295 17.2557H36.3473L32.8615 23.4282ZM40.1936 15.5335C40.1936 16.3051 39.5736 16.87 38.6781 16.87C37.7825 16.87 37.1625 16.3051 37.1625 15.5335C37.1625 14.7482 37.7825 14.1833 38.6781 14.1833C39.5736 14.1833 40.1936 14.7482 40.1936 15.5335ZM39.9732 27.1482H37.3692V17.2557H39.9732V27.1482Z"/>
</mask>
<path d="M25.9987 15.5335C25.9987 16.3051 25.3787 16.87 24.4832 16.87C23.5876 16.87 22.9676 16.3051 22.9676 15.5335C22.9676 14.7482 23.5876 14.1833 24.4832 14.1833C25.3787 14.1833 25.9987 14.7482 25.9987 15.5335ZM25.7783 27.1482H23.1743V17.2557H25.7783V27.1482ZM32.8615 23.4282V27.1482H30.2575V23.4282L26.7993 17.2557H29.6099L31.649 21.0446L33.7295 17.2557H36.3473L32.8615 23.4282ZM40.1936 15.5335C40.1936 16.3051 39.5736 16.87 38.6781 16.87C37.7825 16.87 37.1625 16.3051 37.1625 15.5335C37.1625 14.7482 37.7825 14.1833 38.6781 14.1833C39.5736 14.1833 40.1936 14.7482 40.1936 15.5335ZM39.9732 27.1482H37.3692V17.2557H39.9732V27.1482Z" fill="white"/>
<path d="M25.7783 27.1482V27.7223H26.3524V27.1482H25.7783ZM23.1743 27.1482H22.6002V27.7223H23.1743V27.1482ZM23.1743 17.2557V16.6817H22.6002V17.2557H23.1743ZM25.7783 17.2557H26.3524V16.6817H25.7783V17.2557ZM25.9987 15.5335H25.4247C25.4247 15.9271 25.1262 16.2959 24.4832 16.2959V16.87V17.444C25.6313 17.444 26.5728 16.683 26.5728 15.5335H25.9987ZM24.4832 16.87V16.2959C23.8402 16.2959 23.5417 15.9271 23.5417 15.5335H22.9676H22.3936C22.3936 16.683 23.3351 17.444 24.4832 17.444V16.87ZM22.9676 15.5335H23.5417C23.5417 15.3004 23.63 15.1194 23.7728 14.9913C23.9198 14.8596 24.1558 14.7574 24.4832 14.7574V14.1833V13.6092C23.915 13.6092 23.3933 13.7895 23.0063 14.1365C22.6153 14.4872 22.3936 14.9813 22.3936 15.5335H22.9676ZM24.4832 14.1833V14.7574C24.8106 14.7574 25.0466 14.8596 25.1935 14.9913C25.3364 15.1194 25.4247 15.3004 25.4247 15.5335H25.9987H26.5728C26.5728 14.9813 26.3511 14.4872 25.9601 14.1365C25.5731 13.7895 25.0513 13.6092 24.4832 13.6092V14.1833ZM25.7783 27.1482V26.5741H23.1743V27.1482V27.7223H25.7783V27.1482ZM23.1743 27.1482H23.7484V17.2557H23.1743H22.6002V27.1482H23.1743ZM23.1743 17.2557V17.8298H25.7783V17.2557V16.6817H23.1743V17.2557ZM25.7783 17.2557H25.2042V27.1482H25.7783H26.3524V17.2557H25.7783ZM32.8615 23.4282L32.3616 23.1459L32.2874 23.2773V23.4282H32.8615ZM32.8615 27.1482V27.7223H33.4355V27.1482H32.8615ZM30.2575 27.1482H29.6834V27.7223H30.2575V27.1482ZM30.2575 23.4282H30.8315V23.2783L30.7583 23.1476L30.2575 23.4282ZM26.7993 17.2557V16.6817H25.8196L26.2984 17.5363L26.7993 17.2557ZM29.6099 17.2557L30.1154 16.9837L29.9529 16.6817H29.6099V17.2557ZM31.649 21.0446L31.1435 21.3167L31.644 22.2466L32.1522 21.3209L31.649 21.0446ZM33.7295 17.2557V16.6817H33.3898L33.2263 16.9794L33.7295 17.2557ZM36.3473 17.2557L36.8471 17.538L37.3307 16.6817H36.3473V17.2557ZM32.8615 23.4282H32.2874V27.1482H32.8615H33.4355V23.4282H32.8615ZM32.8615 27.1482V26.5741H30.2575V27.1482V27.7223H32.8615V27.1482ZM30.2575 27.1482H30.8315V23.4282H30.2575H29.6834V27.1482H30.2575ZM30.2575 23.4282L30.7583 23.1476L27.3001 16.9752L26.7993 17.2557L26.2984 17.5363L29.7566 23.7088L30.2575 23.4282ZM26.7993 17.2557V17.8298H29.6099V17.2557V16.6817H26.7993V17.2557ZM29.6099 17.2557L29.1044 17.5278L31.1435 21.3167L31.649 21.0446L32.1545 20.7726L30.1154 16.9837L29.6099 17.2557ZM31.649 21.0446L32.1522 21.3209L34.2327 17.5321L33.7295 17.2557L33.2263 16.9794L31.1458 20.7683L31.649 21.0446ZM33.7295 17.2557V17.8298H36.3473V17.2557V16.6817H33.7295V17.2557ZM36.3473 17.2557L35.8474 16.9735L32.3616 23.1459L32.8615 23.4282L33.3613 23.7105L36.8471 17.538L36.3473 17.2557ZM39.9732 27.1482V27.7223H40.5473V27.1482H39.9732ZM37.3692 27.1482H36.7951V27.7223H37.3692V27.1482ZM37.3692 17.2557V16.6817H36.7951V17.2557H37.3692ZM39.9732 17.2557H40.5473V16.6817H39.9732V17.2557ZM40.1936 15.5335H39.6195C39.6195 15.9271 39.3211 16.2959 38.6781 16.2959V16.87V17.444C39.8262 17.444 40.7677 16.683 40.7677 15.5335H40.1936ZM38.6781 16.87V16.2959C38.035 16.2959 37.7366 15.9271 37.7366 15.5335H37.1625H36.5884C36.5884 16.683 37.53 17.444 38.6781 17.444V16.87ZM37.1625 15.5335H37.7366C37.7366 15.3004 37.8248 15.1194 37.9677 14.9913C38.1146 14.8596 38.3507 14.7574 38.6781 14.7574V14.1833V13.6092C38.1099 13.6092 37.5882 13.7895 37.2012 14.1365C36.8102 14.4872 36.5884 14.9813 36.5884 15.5335H37.1625ZM38.6781 14.1833V14.7574C39.0055 14.7574 39.2415 14.8596 39.3884 14.9913C39.5313 15.1194 39.6195 15.3004 39.6195 15.5335H40.1936H40.7677C40.7677 14.9813 40.5459 14.4872 40.1549 14.1365C39.768 13.7895 39.2462 13.6092 38.6781 13.6092V14.1833ZM39.9732 27.1482V26.5741H37.3692V27.1482V27.7223H39.9732V27.1482ZM37.3692 27.1482H37.9433V17.2557H37.3692H36.7951V27.1482H37.3692ZM37.3692 17.2557V17.8298H39.9732V17.2557V16.6817H37.3692V17.2557ZM39.9732 17.2557H39.3991V27.1482H39.9732H40.5473V17.2557H39.9732Z" fill="#016D52" mask="url(#path-4-outside-1_49476_27728)"/>
<mask id="path-6-outside-2_49476_27728" maskUnits="userSpaceOnUse" x="9.18555" y="31" width="44" height="16" fill="black">
<rect fill="white" x="9.18555" y="31" width="44" height="16"/>
<path d="M13.0514 46H10.2304V35.2832H17.5291V37.731H13.0514V39.7162H16.7978V42.164H13.0514V46ZM22.0796 33.4174C22.0796 34.2533 21.4079 34.8653 20.4377 34.8653C19.4675 34.8653 18.7959 34.2533 18.7959 33.4174C18.7959 32.5667 19.4675 31.9547 20.4377 31.9547C21.4079 31.9547 22.0796 32.5667 22.0796 33.4174ZM21.8408 46H19.0198V35.2832H21.8408V46ZM29.5142 41.97V46H26.6932V41.97L22.9468 35.2832H25.9917L28.2007 39.3878L30.4545 35.2832H33.2905L29.5142 41.97ZM40.0419 46L39.3851 44.0149H35.6238L34.9521 46H32.1013L36.0716 35.2832H39.1612L43.0868 46H40.0419ZM37.5343 38.3878L36.385 41.7909H38.6538L37.5343 38.3878ZM48.6165 46H45.7955V37.8355H42.5118V35.2832H51.9002V37.8355H48.6165V46Z"/>
</mask>
<path d="M13.0514 46H10.2304V35.2832H17.5291V37.731H13.0514V39.7162H16.7978V42.164H13.0514V46ZM22.0796 33.4174C22.0796 34.2533 21.4079 34.8653 20.4377 34.8653C19.4675 34.8653 18.7959 34.2533 18.7959 33.4174C18.7959 32.5667 19.4675 31.9547 20.4377 31.9547C21.4079 31.9547 22.0796 32.5667 22.0796 33.4174ZM21.8408 46H19.0198V35.2832H21.8408V46ZM29.5142 41.97V46H26.6932V41.97L22.9468 35.2832H25.9917L28.2007 39.3878L30.4545 35.2832H33.2905L29.5142 41.97ZM40.0419 46L39.3851 44.0149H35.6238L34.9521 46H32.1013L36.0716 35.2832H39.1612L43.0868 46H40.0419ZM37.5343 38.3878L36.385 41.7909H38.6538L37.5343 38.3878ZM48.6165 46H45.7955V37.8355H42.5118V35.2832H51.9002V37.8355H48.6165V46Z" fill="white"/>
<path d="M13.0514 46V46.5741H13.6254V46H13.0514ZM10.2304 46H9.65629V46.5741H10.2304V46ZM10.2304 35.2832V34.7091H9.65629V35.2832H10.2304ZM17.5291 35.2832H18.1032V34.7091H17.5291V35.2832ZM17.5291 37.731V38.3051H18.1032V37.731H17.5291ZM13.0514 37.731V37.157H12.4773V37.731H13.0514ZM13.0514 39.7162H12.4773V40.2903H13.0514V39.7162ZM16.7978 39.7162H17.3718V39.1421H16.7978V39.7162ZM16.7978 42.164V42.7381H17.3718V42.164H16.7978ZM13.0514 42.164V41.59H12.4773V42.164H13.0514ZM13.0514 46V45.4259H10.2304V46V46.5741H13.0514V46ZM10.2304 46H10.8044V35.2832H10.2304H9.65629V46H10.2304ZM10.2304 35.2832V35.8573H17.5291V35.2832V34.7091H10.2304V35.2832ZM17.5291 35.2832H16.9551V37.731H17.5291H18.1032V35.2832H17.5291ZM17.5291 37.731V37.157H13.0514V37.731V38.3051H17.5291V37.731ZM13.0514 37.731H12.4773V39.7162H13.0514H13.6254V37.731H13.0514ZM13.0514 39.7162V40.2903H16.7978V39.7162V39.1421H13.0514V39.7162ZM16.7978 39.7162H16.2237V42.164H16.7978H17.3718V39.7162H16.7978ZM16.7978 42.164V41.59H13.0514V42.164V42.7381H16.7978V42.164ZM13.0514 42.164H12.4773V46H13.0514H13.6254V42.164H13.0514ZM21.8408 46V46.5741H22.4148V46H21.8408ZM19.0198 46H18.4457V46.5741H19.0198V46ZM19.0198 35.2832V34.7091H18.4457V35.2832H19.0198ZM21.8408 35.2832H22.4148V34.7091H21.8408V35.2832ZM22.0796 33.4174H21.5055C21.5055 33.8754 21.1554 34.2912 20.4377 34.2912V34.8653V35.4393C21.6604 35.4393 22.6536 34.6312 22.6536 33.4174H22.0796ZM20.4377 34.8653V34.2912C19.7201 34.2912 19.3699 33.8754 19.3699 33.4174H18.7959H18.2218C18.2218 34.6312 19.215 35.4393 20.4377 35.4393V34.8653ZM18.7959 33.4174H19.3699C19.3699 33.1516 19.4711 32.9425 19.6362 32.7944C19.8054 32.6427 20.073 32.5288 20.4377 32.5288V31.9547V31.3806C19.8323 31.3806 19.2789 31.5727 18.8697 31.9396C18.4565 32.3102 18.2218 32.8325 18.2218 33.4174H18.7959ZM20.4377 31.9547V32.5288C20.8024 32.5288 21.07 32.6427 21.2392 32.7944C21.4043 32.9425 21.5055 33.1516 21.5055 33.4174H22.0796H22.6536C22.6536 32.8325 22.419 32.3102 22.0057 31.9396C21.5965 31.5727 21.0432 31.3806 20.4377 31.3806V31.9547ZM21.8408 46V45.4259H19.0198V46V46.5741H21.8408V46ZM19.0198 46H19.5938V35.2832H19.0198H18.4457V46H19.0198ZM19.0198 35.2832V35.8573H21.8408V35.2832V34.7091H19.0198V35.2832ZM21.8408 35.2832H21.2667V46H21.8408H22.4148V35.2832H21.8408ZM29.5142 41.97L29.0143 41.6877L28.9401 41.8191V41.97H29.5142ZM29.5142 46V46.5741H30.0883V46H29.5142ZM26.6932 46H26.1191V46.5741H26.6932V46ZM26.6932 41.97H27.2673V41.8201L27.194 41.6894L26.6932 41.97ZM22.9468 35.2832V34.7091H21.9671L22.446 35.5638L22.9468 35.2832ZM25.9917 35.2832L26.4972 35.0111L26.3347 34.7091H25.9917V35.2832ZM28.2007 39.3878L27.6952 39.6599L28.1957 40.5898L28.7039 39.6641L28.2007 39.3878ZM30.4545 35.2832V34.7091H30.1148L29.9513 35.0069L30.4545 35.2832ZM33.2905 35.2832L33.7903 35.5655L34.2739 34.7091H33.2905V35.2832ZM29.5142 41.97H28.9401V46H29.5142H30.0883V41.97H29.5142ZM29.5142 46V45.4259H26.6932V46V46.5741H29.5142V46ZM26.6932 46H27.2673V41.97H26.6932H26.1191V46H26.6932ZM26.6932 41.97L27.194 41.6894L23.4476 35.0026L22.9468 35.2832L22.446 35.5638L26.1924 42.2506L26.6932 41.97ZM22.9468 35.2832V35.8573H25.9917V35.2832V34.7091H22.9468V35.2832ZM25.9917 35.2832L25.4862 35.5552L27.6952 39.6599L28.2007 39.3878L28.7062 39.1158L26.4972 35.0111L25.9917 35.2832ZM28.2007 39.3878L28.7039 39.6641L30.9577 35.5595L30.4545 35.2832L29.9513 35.0069L27.6975 39.1115L28.2007 39.3878ZM30.4545 35.2832V35.8573H33.2905V35.2832V34.7091H30.4545V35.2832ZM33.2905 35.2832L32.7906 35.0009L29.0143 41.6877L29.5142 41.97L30.0141 42.2523L33.7903 35.5655L33.2905 35.2832ZM40.0419 46L39.4968 46.1803L39.6271 46.5741H40.0419V46ZM39.3851 44.0149L39.9301 43.8345L39.7999 43.4408H39.3851V44.0149ZM35.6238 44.0149V43.4408H35.212L35.08 43.8309L35.6238 44.0149ZM34.9521 46V46.5741H35.3639L35.4959 46.184L34.9521 46ZM32.1013 46L31.563 45.8006L31.2764 46.5741H32.1013V46ZM36.0716 35.2832V34.7091H35.672L35.5333 35.0838L36.0716 35.2832ZM39.1612 35.2832L39.7003 35.0857L39.5623 34.7091H39.1612V35.2832ZM43.0868 46V46.5741H43.9084L43.6258 45.8025L43.0868 46ZM37.5343 38.3878L38.0796 38.2084L37.5415 36.5724L36.9904 38.2041L37.5343 38.3878ZM36.385 41.7909L35.8411 41.6072L35.5852 42.365H36.385V41.7909ZM38.6538 41.7909V42.365H39.4469L39.1991 41.6115L38.6538 41.7909ZM40.0419 46L40.5869 45.8197L39.9301 43.8345L39.3851 44.0149L38.8401 44.1952L39.4968 46.1803L40.0419 46ZM39.3851 44.0149V43.4408H35.6238V44.0149V44.5889H39.3851V44.0149ZM35.6238 44.0149L35.08 43.8309L34.4083 45.816L34.9521 46L35.4959 46.184L36.1676 44.1988L35.6238 44.0149ZM34.9521 46V45.4259H32.1013V46V46.5741H34.9521V46ZM32.1013 46L32.6396 46.1994L36.6099 35.4826L36.0716 35.2832L35.5333 35.0838L31.563 45.8006L32.1013 46ZM36.0716 35.2832V35.8573H39.1612V35.2832V34.7091H36.0716V35.2832ZM39.1612 35.2832L38.6222 35.4806L42.5477 46.1975L43.0868 46L43.6258 45.8025L39.7003 35.0857L39.1612 35.2832ZM43.0868 46V45.4259H40.0419V46V46.5741H43.0868V46ZM37.5343 38.3878L36.9904 38.2041L35.8411 41.6072L36.385 41.7909L36.9289 41.9746L38.0782 38.5715L37.5343 38.3878ZM36.385 41.7909V42.365H38.6538V41.7909V41.2168H36.385V41.7909ZM38.6538 41.7909L39.1991 41.6115L38.0796 38.2084L37.5343 38.3878L36.989 38.5672L38.1084 41.9703L38.6538 41.7909ZM48.6165 46V46.5741H49.1905V46H48.6165ZM45.7955 46H45.2214V46.5741H45.7955V46ZM45.7955 37.8355H46.3695V37.2614H45.7955V37.8355ZM42.5118 37.8355H41.9377V38.4096H42.5118V37.8355ZM42.5118 35.2832V34.7091H41.9377V35.2832H42.5118ZM51.9002 35.2832H52.4742V34.7091H51.9002V35.2832ZM51.9002 37.8355V38.4096H52.4742V37.8355H51.9002ZM48.6165 37.8355V37.2614H48.0424V37.8355H48.6165ZM48.6165 46V45.4259H45.7955V46V46.5741H48.6165V46ZM45.7955 46H46.3695V37.8355H45.7955H45.2214V46H45.7955ZM45.7955 37.8355V37.2614H42.5118V37.8355V38.4096H45.7955V37.8355ZM42.5118 37.8355H43.0858V35.2832H42.5118H41.9377V37.8355H42.5118ZM42.5118 35.2832V35.8573H51.9002V35.2832V34.7091H42.5118V35.2832ZM51.9002 35.2832H51.3261V37.8355H51.9002H52.4742V35.2832H51.9002ZM51.9002 37.8355V37.2614H48.6165V37.8355V38.4096H51.9002V37.8355ZM48.6165 37.8355H48.0424V46H48.6165H49.1905V37.8355H48.6165Z" fill="#016D52" mask="url(#path-6-outside-2_49476_27728)"/>
</svg>
