<svg width="20" height="20" viewBox="0 0 20 20" fill="none" xmlns="http://www.w3.org/2000/svg">
<path d="M2.66255 7.80488L9.09108 1.37635C9.59329 0.874144 10.4073 0.874144 10.9095 1.37635L17.3381 7.80488C17.8403 8.30708 17.8403 9.12113 17.3381 9.62333C16.8359 10.1255 16.0218 10.1255 15.5196 9.62333L11.2856 5.38933L11.2856 17.7141C11.2856 18.424 10.7099 18.9997 10 18.9997C9.29011 18.9997 8.71443 18.424 8.71443 17.7141L8.71443 5.38933L4.48043 9.62333C4.22933 9.87443 3.90012 9.99998 3.57149 9.99998C3.24286 9.99998 2.91365 9.87443 2.66255 9.62333C2.16035 9.12113 2.16035 8.30708 2.66255 7.80488Z" fill="white"/>
</svg>

