<?xml version="1.0" encoding="UTF-8"?><svg id="Layer_1" xmlns="http://www.w3.org/2000/svg" viewBox="0 0 199.69 199.64"><path d="m128.95,173.36c-3.5.43-6.62,2.2-8.78,4.97-2.17,2.78-3.13,6.23-2.7,9.73.43,3.5,2.2,6.62,4.97,8.78,2.34,1.83,5.17,2.8,8.09,2.8.54,0,1.09-.03,1.64-.1,3.5-.43,6.62-2.2,8.78-4.97,2.17-2.78,3.13-6.23,2.7-9.73-.25-2.02-.96-3.92-2.04-5.58l1.82-2.33c8.82,6.08,18.49,9.83,27.62,10.66,1.26.11,2.5.17,3.7.17,8.82,0,15.98-3.03,20.41-8.7,5.03-6.45,5.9-15.49,2.44-25.45-3.41-9.81-10.63-19.39-20.33-26.96-9.7-7.57-20.74-12.26-31.08-13.19-10.51-.95-19.07,2.08-24.11,8.53-5.03,6.45-5.9,15.49-2.44,25.45,3.01,8.66,8.99,17.14,17.03,24.22l-1.82,2.33c-1.87-.65-3.88-.88-5.9-.63Zm3.15-45.74c.46-.59.99-1.12,1.54-1.62.67-.6,1.39-1.14,2.18-1.6,10.47-2.28,23.32.66,34.29,8.69.45.32.9.66,1.34,1.01.44.35.88.7,1.3,1.06,10.46,8.7,16.43,20.48,16.74,31.2-.27.88-.61,1.72-1.03,2.5-.35.65-.74,1.27-1.2,1.85,0,0,0,.01-.01.02-6.63,8.47-22.69,7.21-37.09-2.41-.28-.19-.57-.38-.85-.58-.28-.2-.56-.39-.84-.6l.65-.83c.28-.35.4-.79.34-1.24-.05-.44-.28-.84-.63-1.12l-.87-.68c-.35-.28-.79-.4-1.24-.34-.45.05-.84.28-1.12.63l-.65.84c-.26-.22-.52-.45-.78-.67-.26-.23-.51-.46-.77-.69-12.82-11.64-17.93-26.91-11.32-35.4,0,0,0-.01.01-.02Z" fill="#fff"/><path d="m62.77,47.81h-24.82v67.02h42.3V47.81h-17.48Zm-14.76,24.17v40.71h-7.91v-62.72h7.91v22.02Zm14.76,0v40.71h-7.34v-62.72h7.34v22.02Zm15.34,0v40.71h-7.91v-62.72h7.91v22.02Z" fill="#fff"/><path d="m72.22,8.16h-27.07v11.42h27.07v-11.42Zm-2.15,9.27h-22.78v-7.13h22.78v7.13Z" fill="#fff"/><path d="m110.99,72.19l-10.67-44.62c2.26-.55,3.94-2.57,3.94-4.99,0-2.84-2.31-5.15-5.14-5.15h-18.73V5.77c0-3.18-2.59-5.77-5.77-5.77h-31.85c-3.18,0-5.77,2.59-5.77,5.77v11.66h-17.89c-2.84,0-5.14,2.31-5.14,5.15s2.15,4.96,4.85,5.11l-11.42,44.32c-4.14.42-7.38,3.92-7.38,8.16s3.37,7.88,7.63,8.17l9.36,46.57c-2.78.06-5.03,2.34-5.03,5.13s2.31,5.15,5.15,5.15h84.77c2.84,0,5.15-2.31,5.15-5.15s-2.14-4.94-4.83-5.11l.33-1.95.2-1.07,8.05-43.7c3.76-.75,6.61-4.07,6.61-8.04s-2.73-7.16-6.38-7.99ZM16.1,22.58c0-1.65,1.35-3,3-3h20.04V5.77c0-2,1.63-3.63,3.63-3.63h31.85c2,0,3.63,1.63,3.63,3.63v13.81h20.88c1.65,0,3,1.35,3,3s-1.35,3-3,3H19.1c-1.65,0-3-1.34-3-3Zm66.26,49.4v42.21c0,1.94-1.58,3.52-3.52,3.52h-39.47c-1.94,0-3.52-1.58-3.52-3.52V48.45c0-1.94,1.58-3.52,3.52-3.52h39.47c1.94,0,3.52,1.58,3.52,3.52v23.52Zm-72.97,14.26h-1.19c-.35,0-.69-.04-1.02-.09-2.86-.49-5.04-2.97-5.04-5.96s1.99-5.24,4.64-5.88c.37-.09.76-.14,1.15-.16.09,0,.17-.01.26-.01h25.5v12.11H9.39Zm95.48,53.82c0,1.65-1.35,3-3,3H17.17c-1.65,0-3-1.35-3-3s1.35-3,3-3h84.7c1.65,0,3,1.35,3,3Zm6.33-54.18c-.37.13-.75.23-1.14.28-.29.04-.58.07-.89.07h-24.67v-12.11h24.67s.05,0,.08,0c.39,0,.77.04,1.13.12.41.08.81.21,1.19.38,2.15.93,3.65,3.07,3.65,5.56,0,2.63-1.68,4.86-4.03,5.7Z" fill="#fff"/></svg>