<?xml version="1.0" encoding="UTF-8"?><svg id="Layer_1" xmlns="http://www.w3.org/2000/svg" viewBox="0 0 179.19 178.34"><rect x="60.49" y="101.83" width="14.7" height="25.42" rx="6.29" ry="6.29" transform="translate(-61.12 81.51) rotate(-45)" fill="#fff"/><path d="m78.6,90.01h2.12c3.47,0,6.29,2.82,6.29,6.29v12.85c0,3.47-2.82,6.29-6.29,6.29h-2.12c-3.47,0-6.29-2.82-6.29-6.29v-12.85c0-3.47,2.82-6.29,6.29-6.29Z" transform="translate(-49.3 86.41) rotate(-45)" fill="#fff"/><path d="m90.42,78.18h2.12c3.47,0,6.29,2.82,6.29,6.29v12.85c0,3.47-2.82,6.29-6.29,6.29h-2.12c-3.47,0-6.29-2.82-6.29-6.29v-12.85c0-3.47,2.82-6.29,6.29-6.29Z" transform="translate(-37.48 91.31) rotate(-45)" fill="#fff"/><path d="m102.24,66.36h2.12c3.47,0,6.29,2.82,6.29,6.29v12.85c0,3.47-2.82,6.29-6.29,6.29h-2.12c-3.47,0-6.29-2.82-6.29-6.29v-12.85c0-3.47,2.82-6.29,6.29-6.29Z" transform="translate(-25.66 96.21) rotate(-45)" fill="#fff"/><path d="m114.06,54.54h2.12c3.47,0,6.29,2.82,6.29,6.29v12.85c0,3.47-2.82,6.29-6.29,6.29h-2.12c-3.47,0-6.29-2.82-6.29-6.29v-12.85c0-3.47,2.82-6.29,6.29-6.29Z" transform="translate(-13.83 101.1) rotate(-45)" fill="#fff"/><path d="m41.21,113.49l-2,2c-3.4,3.4-3.4,8.93,0,12.32l2.95,2.95,4.97,4.97,7.41,7.41.03.03c3.4,3.4,8.93,3.4,12.32,0l2-2c3.4-3.4,3.4-8.93,0-12.32l-3.14-3.14-9.08-9.08-3.14-3.14c-3.4-3.4-8.93-3.4-12.32,0Z" fill="#fff"/><path d="m116.07,38.62l-2,2c-3.4,3.4-3.4,8.93,0,12.32l3.14,3.14,9.08,9.08,3.14,3.14c3.4,3.4,8.93,3.4,12.32,0l2-2c3.4-3.4,3.4-8.93,0-12.32l-.03-.03-7.41-7.41-4.97-4.97-2.95-2.95c-3.4-3.4-8.93-3.4-12.32,0Z" fill="#fff"/><path d="m144.71,4.69c-1.05.21-1.89.91-2.29,1.91l-12.43,30.75,2.79,2.79,24.69-24.69-9.9-9.9c-.76-.76-1.8-1.07-2.85-.86Z" fill="#fff"/><path d="m144.2,51.57l30.24-12.22c1.11-.45,1.89-1.38,2.13-2.56.24-1.18-.11-2.34-.96-3.19l-13.18-13.18-24.69,24.69,6.46,6.46Z" fill="#fff"/><path d="m34.19,175.03c.85.85,2.01,1.2,3.19.96,1.18-.24,2.11-1.01,2.56-2.13l12.22-30.24-6.46-6.46-24.69,24.69,13.18,13.18Z" fill="#fff"/><path d="m6.13,142.53c-.43.43-.72.97-.85,1.6-.21,1.05.1,2.09.86,2.85l9.9,9.9,24.69-24.69-2.79-2.79-30.75,12.43c-.41.16-.76.4-1.06.7Z" fill="#fff"/><path d="m113.18,175.63c1.91-1.84,2.89-4.25,2.89-6.85,0-.81-.11-1.63-.33-2.46l-.33-1.25h45.33s-.33,1.25-.33,1.25c-.58,2.19-.41,4.25.54,6.31,1.43,3.12,4.34,5.28,7.6,5.64,2.76.3,5.41-.54,7.46-2.38,2.03-1.81,3.18-4.41,3.18-7.12,0-5.27-4.29-9.56-9.56-9.56v-1s0,0,0,0v-1s0,0,0,0c2.6,0,5.04-1,6.84-2.89,1.81-1.87,2.77-4.33,2.7-6.93-.14-4.98-4.3-9.14-9.28-9.28-2.61-.07-5.07.89-6.93,2.7-1.88,1.79-2.89,4.25-2.89,6.85,0,.81.11,1.63.33,2.46l.33,1.25h-45.33s.33-1.25.33-1.25c.58-2.19.41-4.26-.54-6.32-1.44-3.12-4.35-5.28-7.6-5.64-2.76-.3-5.41.54-7.46,2.38-2.02,1.8-3.18,4.41-3.18,7.12,0,5.27,4.29,9.56,9.56,9.56v1s0,1,0,1c-2.56,0-4.95.99-6.75,2.8-.03.03-.06.06-.1.1-1.81,1.86-2.77,4.33-2.7,6.93.14,4.98,4.3,9.14,9.28,9.28,2.61.07,5.07-.89,6.93-2.7Z" fill="#fff"/><path d="m33.37,33.36c7.86-7.86,18.9-11.34,29.82-9.5-1.4-5.3-4.17-10.31-8.32-14.46C49.61,4.14,42.96,1.09,36.09.25c.5,9.66-3.08,19.03-9.94,25.89-6.44,6.44-15.1,9.99-24.12,9.99-.59,0-1.19-.02-1.78-.05.86,7.09,4.04,13.65,9.17,18.78,4.15,4.15,9.16,6.91,14.46,8.32-1.84-10.91,1.64-21.95,9.5-29.81Z" fill="#fff"/><path d="m.06,34.08c9.2.55,18.15-2.82,24.68-9.35,6.52-6.52,9.9-15.47,9.35-24.66-.65-.04-1.3-.07-1.95-.07-3.05,0-6.1.43-9.05,1.29-.06.02-.12.03-.18.05-.42.12-.83.26-1.24.4-.11.04-.23.08-.34.12-.37.13-.73.27-1.09.41-.16.06-.32.13-.47.19-.32.13-.64.27-.96.42-.2.09-.4.19-.59.28-.28.13-.55.27-.82.41-.24.12-.47.25-.7.38-.23.13-.47.26-.7.39-.27.16-.53.32-.79.48-.2.12-.4.24-.59.37-.29.19-.58.39-.86.59-.16.12-.33.23-.49.34-.31.22-.61.46-.91.69-.14.11-.28.21-.42.32-.33.26-.64.54-.96.82-.11.09-.22.18-.32.28-.42.38-.83.77-1.23,1.17-.4.4-.78.81-1.16,1.22-.07.08-.13.15-.2.23-.31.35-.61.7-.91,1.07-.05.06-.1.13-.15.19-.31.39-.61.78-.9,1.18-.02.03-.04.06-.07.1C1.74,19.35-.39,26.63.06,34.07c0,0,0,0,0,0Z" fill="#fff"/><path d="m64.23,30.52c-.02-.42-.05-.84-.09-1.26-.02-.19-.04-.38-.06-.56-.04-.36-.08-.72-.13-1.09-.05-.33-.1-.65-.16-.98-.04-.22-.07-.45-.11-.67-10.54-2.06-21.3,1.21-28.9,8.81-7.6,7.6-10.87,18.36-8.81,28.89.26.05.51.09.77.13.29.05.59.1.88.14.37.05.73.09,1.1.13.19.02.37.04.56.06.42.04.83.07,1.25.09.07,0,.14,0,.22,0,4.06.18,8.15-.41,12.03-1.77,0,0,0,0,0,0,.44-.15.88-.32,1.31-.49.11-.04.22-.09.33-.13.39-.16.78-.33,1.16-.51.15-.07.3-.14.45-.21.52-.25,1.04-.52,1.55-.8.31-.17.61-.33.91-.51.22-.13.44-.27.66-.41.3-.19.6-.37.89-.57.21-.14.41-.28.62-.43.3-.21.6-.43.9-.66.19-.14.37-.28.56-.43.32-.26.64-.52.96-.79.15-.13.3-.25.45-.39.46-.41.91-.83,1.35-1.27.44-.44.86-.89,1.27-1.35.13-.15.25-.3.38-.45.27-.32.54-.64.8-.96.14-.18.29-.37.43-.55.23-.3.45-.6.66-.91.14-.2.29-.41.43-.61.2-.29.39-.59.57-.89.14-.22.28-.44.41-.66.17-.29.34-.6.5-.9.28-.52.56-1.04.81-1.58.07-.15.14-.29.21-.44.18-.39.35-.78.51-1.18.04-.1.08-.21.13-.31,1.71-4.27,2.46-8.84,2.26-13.37,0-.07,0-.13,0-.2Z" fill="#fff"/></svg>