<svg width="32" height="32" viewBox="0 0 32 32" fill="none" xmlns="http://www.w3.org/2000/svg">
<path d="M24.8583 10.2618L17.0322 6.24777C16.7151 6.08514 16.3606 6 16.0004 6C15.6403 6 15.2857 6.08514 14.9687 6.24777L7.14261 10.2618C6.79714 10.439 6.5085 10.7018 6.30734 11.0224C6.10617 11.3429 5.99997 11.7094 6 12.0827V19.9181C5.99948 20.2914 6.10538 20.6578 6.30645 20.9783C6.50751 21.2988 6.79619 21.5614 7.14174 21.7382L14.9678 25.7522C15.2849 25.9149 15.6394 26 15.9996 26C16.3597 26 16.7143 25.9149 17.0313 25.7522L24.8574 21.7382C25.2027 21.5611 25.4913 21.2984 25.6924 20.978C25.8936 20.6576 25.9999 20.2913 26 19.9181V12.0827C26.0001 11.7094 25.894 11.3431 25.693 11.0225C25.492 10.7019 25.2036 10.4391 24.8583 10.2618ZM7.55478 21.0101C7.34764 20.9039 7.17458 20.7462 7.05395 20.554C6.93332 20.3617 6.86961 20.142 6.86957 19.9181V12.0827C6.87068 11.9603 6.8909 11.8388 6.92957 11.722L15.5652 16.3921V25.092C15.502 25.0739 15.4404 25.0512 15.3809 25.0242L7.55478 21.0101Z" fill="#0C45F5"/>
</svg>
