<svg width="24" height="24" viewBox="0 0 24 24" fill="none" xmlns="http://www.w3.org/2000/svg" aria-label="Favorilerim İkon" class="fill-primary-400 md:w-6 md:h-6 w-5 h-5"><path fill-rule="evenodd" clip-rule="evenodd" d="M17.124 1.956A6.876 6.876 0 0 1 24 8.82c0 3.695-1.356 5.46-7.416 10.247l-3.112 2.416a2.4 2.4 0 0 1-2.943 0l-3.113-2.416C1.356 14.28 0 12.516 0 8.82a6.876 6.876 0 0 1 6.876-6.864c1.858.008 3.64.74 4.968 2.04l.156.147.156-.147a7.15 7.15 0 0 1 4.968-2.04m-6.013 4.579.065.061a1.2 1.2 0 0 0 1.647 0l.066-.061c1.056-.998 2.173-2.052 3.608-2.249a4.59 4.59 0 0 1 5.217 4.535c0 1.468-.241 2.333-.996 3.365-.885 1.213-2.493 2.672-5.543 5.082l-3.105 2.41a.114.114 0 0 1-.14 0l-3.105-2.41c-3.05-2.41-4.658-3.87-5.544-5.082-.753-1.032-.995-1.897-.995-3.364a4.59 4.59 0 0 1 5.216-4.536c1.436.197 2.553 1.251 3.61 2.249" fill="currentFillColor"></path></svg>